<svg xmlns="http://www.w3.org/2000/svg" xmlns:xlink="http://www.w3.org/1999/xlink" height="61" width="73">
  <g opacity="0.4">
    <g opacity="1">
      <text font-size="0" transform="translate(0, 37)">
        <tspan font-size="13" font-family="Arial" font-weight="400" style="white-space: pre;text-transform: none" fill="rgb(255,255,255)" x="0" y="16">Anchor USD</tspan>
      </text>
    </g>
    <g opacity="1">
      <g opacity="1">
        <g opacity="1">
          <g opacity="1">
            <g opacity="1">
              <g opacity="1">
                <g opacity="1">
                  <path fill="rgb(19,134,153)" fill-opacity="1" opacity="1" fill-rule="evenodd" d="M50.79639441159926 13.002641040834085C49.4867508468766 12.70801461490338 48.19878013479886 12.140366208408466 47.39118708443802 11.706822079369855C44.71000943764594 10.363540502178186 42.4011803365521 10.811301027908742 39.94343416032602 12.30391074043155C38.85197142661107 12.98372315862197 37.79547571803971 13.580811819683667 36.72322809079344 13.980773909292488L36.72322809079344 19.117818480867733C37.59349366864804 18.81322938323952 38.44532615018094 18.414722515339324 39.273139748628 17.97546943959765C41.5933638547207 16.751851862907472 43.71339336318626 16.983567934973035 45.83833836400427 18.134536366363427C46.338601426601564 17.83420099372966 46.76457352523566 17.47173884815077 46.940302376835824 17.053530517118432C46.940302376835824 17.053530517118432 46.915501483602995 17.779574209590532 46.82009624567131 18.729050404402177C46.96063464065733 18.822744294411297 47.10128475137863 18.919460567969097 47.242270009305784 19.020318626389905C48.13778334333434 19.713787740615103 48.900578383846685 20.361137520690054 49.76034268258468 20.819196538512415C50.51274815971571 19.02983353756168 50.9288892736449 17.063605128947373 50.9288892736449 14.999988805986668C50.9288892736449 14.322639070687767 50.88319753791415 13.656147528137833 50.79639441159926 13.002641040834085"/>
                </g>
              </g>
              <g opacity="1">
                <g opacity="1">
                  <path fill="rgb(19,134,153)" fill-opacity="1" opacity="1" fill-rule="evenodd" d="M26.314114455799924 15.811319684597319C27.878134749762015 17.00538506658931 29.293237968591857 18.64709903418043 31.15509241281844 19.31873982277628C32.476466129745845 19.77176153468418 33.78152934932192 19.801537609645266 35.05531216301876 19.56814243560821L35.05531216301876 14.424381456146888C33.93983054621794 14.59318717434731 32.781673518539016 14.499045523812459 31.527552674251986 14.02027758167505C28.6973462365923 12.900876267348632 26.239600060366158 12.0053552158875 23.11155947244198 12.0053552158875C22.576329384701097 12.0053552158875 21.906034973003056 12.117519227583006 21.225127566453132 12.332668160196544C21.162343323224082 12.683376591975012 21.112294673817296 13.038450688879351 21.07419960808579 13.397106869989535C21.41303343319915 13.477479884358171 21.745834608607225 13.563226025035576 22.06891651504568 13.647181123610057C23.63293680900777 14.094941649340623 25.04804002783761 14.841134565470611 26.314114455799924 15.811319684597319"/>
                </g>
              </g>
              <g opacity="1">
                <g opacity="1">
                  <path fill="rgb(31,153,181)" fill-opacity="1" opacity="1" fill-rule="evenodd" d="M38.252259016464706 22.067720794447155C40.345700179932955 22.576376751677117 42.185658340044064 22.35641439341196 44.413158385851915 20.33085771513816C44.2890422039525 20.00432835174912 44.00003359677536 19.539888746435054 43.32627599728355 19.14272516011201C43.32627599728355 19.14272516011201 44.75623740890603 18.784292859264667 45.83831602085722 18.13459233642957C43.71337102003917 16.98362390503906 41.59334151157357 16.751907832973476 39.27311740548082 17.975525409663774C38.445415522769025 18.41466654527406 37.5935830412361 18.813285353305723 36.723205747646205 19.11776251080253L36.723205747646205 20.185783304801443C36.87603287351336 20.714364605426418 37.306697033029344 21.83801964474736 38.252259016464706 22.067720794447155"/>
                </g>
              </g>
              <g opacity="1">
                <g opacity="1">
                  <path fill="rgb(31,153,181)" fill-opacity="1" opacity="1" fill-rule="evenodd" d="M46.82011858881819 18.729083986442618C46.688294021184255 20.0397909853874 46.4218519925343 21.77698988509053 45.89779347832176 22.625048320824206C45.89779347832176 22.625048320824206 45.828194575240445 21.371318848778643 45.34178426381827 21.580311074163383L45.2831335027947 21.521542505161246C44.44258431052541 22.49251120520796 42.58005957188726 24.242471279894414 39.364322131766144 25.340939789642906C37.941287095731305 25.826983840323425 37.04543861449693 26.464035128306577 36.47971013102383 27.040974565710403C36.21907732060859 27.307280138388652 36.028713707686364 27.560264835426416 35.889292470053185 27.780339133822984C35.74975951668472 27.560264835426416 35.559395903762486 27.307280138388652 35.29876309334725 27.040974565710403C34.733146325609425 26.464035128306577 33.83718612863978 25.826983840323425 32.414374524075505 25.340939789642906C29.251478626743246 24.260605581186503 27.397891146927734 22.55016037289577 26.537791700983924 21.570348402465875C26.087018709117025 21.443856053946995 26.019989267947224 22.625048320824206 26.019989267947224 22.625048320824206C25.116544116713616 21.162438563525335 24.977458026286282 17.05345215902744 24.977458026286282 17.05345215902744C25.53357895652505 18.37669645269267 28.59157377842657 19.142702772086224 28.59157377842657 19.142702772086224C27.849557864676896 19.58027674585641 27.573843429998455 20.099678955703858 27.47117666927338 20.425872498698567C29.651532674791667 22.363220353403264 31.466243078728695 22.568294674187857 33.52628123734719 22.067698406421094C34.471954936517776 21.837997256721316 34.90250738029846 20.714342217400482 35.055222790430314 20.18587285690699L35.055222790430314 19.568075271530255C33.781551692468845 19.801470445567308 32.476376757157574 19.771694370606227 31.155114755965545 19.318784598829765C29.293148596003807 18.647143810233928 27.878157092909344 17.00542984264284 26.314136798947363 15.811364460650871C25.047950655249853 14.841179341524185 23.632959152155394 14.09498642539421 22.06893885819341 13.647225899663653C21.745856951754977 13.563270801089171 21.413055776346923 13.477412720280338 21.07422195123359 13.397151646043135C21.01836408359209 13.923829964433704 20.98898284521266 14.458456032155988 20.98898284521266 15.000022388027102C20.98898284521266 23.284151814699587 27.691256667780888 30.000000000000796 35.95889137313449 30.000000000000796C42.167046498546014 30.000000000000796 47.492423883751286 26.213177293766034 49.76025330999616 20.819230120552866C48.90060072699348 20.361171102730506 48.137805686481165 19.71382132265555 47.242180636717364 19.020352208430346C47.1013070945255 18.91949415000954 46.960656983804206 18.822777876451738 46.82011858881819 18.729083986442618"/>
                </g>
              </g>
              <g opacity="1">
                <g opacity="1">
                  <path fill="rgb(255,255,255)" fill-opacity="1" opacity="1" fill-rule="evenodd" d="M39.43394470214844 10.153053283691406L39.43394470214844 11.836074829101562L36.7232666015625 11.836074829101562L36.7232666015625 20.185806274414062C36.87599182128906 20.714385986328125 37.3067626953125 21.838043212890625 38.25221252441406 22.067733764648438C40.34576416015625 22.576400756835938 42.18560791015625 22.356430053710938 44.41322326660156 20.33087158203125C44.28910827636719 20.004348754882812 44.000091552734375 19.539901733398438 43.32623291015625 19.142745971679688C43.32623291015625 19.142745971679688 44.756195068359375 18.784317016601562 45.83837890625 18.134613037109375C46.338531494140625 17.834274291992188 46.764617919921875 17.471817016601562 46.940338134765625 17.053497314453125C46.940338134765625 17.053497314453125 46.915435791015625 17.779541015625 46.82014465332031 18.7291259765625C46.68830871582031 20.039825439453125 46.4217529296875 21.77691650390625 45.89781188964844 22.624984741210938C45.89781188964844 22.624984741210938 45.828216552734375 21.371353149414062 45.34169006347656 21.580245971679688L45.28315734863281 21.521575927734375C44.442596435546875 22.4925537109375 42.580078125 24.242507934570312 39.364227294921875 25.340988159179688C37.941314697265625 25.8270263671875 37.04545593261719 26.463958740234375 36.479736328125 27.041015625C36.21910095214844 27.307327270507812 36.02873229980469 27.560195922851562 35.889312744140625 27.780380249023438C35.749786376953125 27.560195922851562 35.559417724609375 27.307327270507812 35.29878234863281 27.041015625C34.73304748535156 26.463958740234375 33.83720397949219 25.8270263671875 32.414398193359375 25.340988159179688C29.251495361328125 24.260650634765625 27.397918701171875 22.550094604492188 26.537811279296875 21.570388793945312C26.086929321289062 21.443893432617188 26.020004272460938 22.624984741210938 26.020004272460938 22.624984741210938C25.116561889648438 21.1624755859375 24.97747802734375 17.053497314453125 24.97747802734375 17.053497314453125C25.533493041992188 18.376632690429688 28.591476440429688 19.142745971679688 28.591476440429688 19.142745971679688C27.849578857421875 19.5802001953125 27.573745727539062 20.099716186523438 27.47119140625 20.425918579101562C29.65155029296875 22.363265991210938 31.466262817382812 22.568328857421875 33.52630615234375 22.067733764648438C34.47196960449219 21.838043212890625 34.90252685546875 20.714385986328125 35.05523681640625 20.185806274414062L35.05523681640625 11.836074829101562L32.06684875488281 11.836074829101562L32.06684875488281 10.153053283691406L35.05523681640625 10.153053283691406L35.05523681640625 8.53082275390625C34.870361328125 8.485145568847656 34.6923828125 8.422576904296875 34.52168273925781 8.346450805664062C33.40351867675781 7.847984313964844 32.62274169921875 6.729034423828125 32.622406005859375 5.423248291015625C32.623077392578125 3.6537017822265625 34.05360412597656 2.22064208984375 35.81959533691406 2.2195205688476562C37.58526611328125 2.22064208984375 39.01600646972656 3.6537017822265625 39.01690673828125 5.423248291015625C39.01679992675781 5.760414123535156 38.962615966796875 6.084480285644531 38.86619567871094 6.389518737792969C38.54624938964844 7.40045166015625 37.741119384765625 8.1942138671875 36.7232666015625 8.494659423828125L36.7232666015625 10.153053283691406L39.43394470214844 10.153053283691406ZM34.290557861328125 5.423240661621094C34.2921142578125 6.269172668457031 34.975372314453125 6.95379638671875 35.819610595703125 6.955253601074219C36.66407775878906 6.95379638671875 37.34721374511719 6.269172668457031 37.348663330078125 5.423240661621094C37.34721374511719 4.577308654785156 36.66407775878906 3.8925704956054688 35.819610595703125 3.89111328125C34.975372314453125 3.8925704956054688 34.2921142578125 4.577308654785156 34.290557861328125 5.423240661621094Z"/>
                </g>
              </g>
            </g>
          </g>
        </g>
      </g>
    </g>
  </g>
</svg>