<svg xmlns="http://www.w3.org/2000/svg" xmlns:xlink="http://www.w3.org/1999/xlink" height="46" width="46">
  <g>
    <g opacity="1">
      <path fill="rgb(245,247,251)" fill-opacity="1" opacity="1" fill-rule="evenodd" d="M40.43973922729492 38.32054138183594L42.779720306396484 38.32054138183594C43.208717346191406 38.32054138183594 43.559715270996094 38.671539306640625 43.559715270996094 39.10053253173828L43.559715270996094 42.22051239013672C43.559715270996094 42.64950942993164 43.208717346191406 43.00050735473633 42.779720306396484 43.00050735473633L3.7799949645996094 43.00050735473633C3.349437713623047 43.00050735473633 3 42.64950942993164 3 42.22051239013672L3 39.10053253173828C3 38.671539306640625 3.349437713623047 38.32054138183594 3.7799949645996094 38.32054138183594L6.119977951049805 38.32054138183594L6.119977951049805 20.547584533691406L40.43973922729492 20.547584533691406L40.43973922729492 38.32054138183594ZM10.799945831298828 26.00754165649414L10.799945831298828 36.76054382324219L15.479911804199219 36.76054382324219L15.479911804199219 26.00754165649414C15.479911804199219 24.715866088867188 14.431598663330078 23.667556762695312 13.139930725097656 23.667556762695312C11.848258972167969 23.667556762695312 10.799945831298828 24.714309692382812 10.799945831298828 26.00754165649414ZM25.61983871459961 36.76054382324219L20.93987274169922 36.76054382324219L20.93987274169922 26.00754165649414C20.93987274169922 24.714309692382812 21.98818588256836 23.667556762695312 23.279857635498047 23.667556762695312C24.57152557373047 23.667556762695312 25.61983871459961 24.715866088867188 25.61983871459961 26.00754165649414L25.61983871459961 36.76054382324219ZM31.079803466796875 36.76054382324219L35.759769439697266 36.76054382324219L35.759769439697266 26.00754165649414C35.759769439697266 24.715866088867188 34.711456298828125 23.667556762695312 33.4197883605957 23.667556762695312C32.128116607666016 23.667556762695312 31.079803466796875 24.714309692382812 31.079803466796875 26.00754165649414L31.079803466796875 36.76054382324219Z"/>
    </g>
    <g opacity="1">
      <path fill="rgb(245,247,251)" fill-opacity="1" opacity="1" fill-rule="evenodd" d="M23.744735717773438 4.1193389892578125L43.0948371887207 16.0267333984375C43.350677490234375 16.18585205078125 43.559715270996094 16.55712890625 43.559715270996094 16.859771728515625L43.559715270996094 18.040679931640625C43.559715270996094 18.471237182617188 43.208717346191406 18.8206787109375 42.779720306396484 18.8206787109375L3.7799949645996094 18.8206787109375C3.349437713623047 18.8206787109375 3 18.471237182617188 3 18.040679931640625L3 16.859771728515625C3 16.55712890625 3.2090377807617188 16.18585205078125 3.464876174926758 16.0267333984375L22.814979553222656 4.1193389892578125C23.070819854736328 3.9602203369140625 23.488895416259766 3.9602203369140625 23.744735717773438 4.1193389892578125ZM20.159881591796875 11.80072021484375C20.159881591796875 13.52294921875 21.557632446289062 14.920700073242188 23.279861450195312 14.920700073242188C25.002086639404297 14.920700073242188 26.399837493896484 13.52294921875 26.399837493896484 11.80072021484375C26.399837493896484 10.0784912109375 25.002086639404297 8.680740356445312 23.279861450195312 8.680740356445312C21.557632446289062 8.680740356445312 20.159881591796875 10.0784912109375 20.159881591796875 11.80072021484375Z"/>
    </g>
  </g>
</svg>