<svg xmlns="http://www.w3.org/2000/svg" xmlns:xlink="http://www.w3.org/1999/xlink" height="46" width="46">
  <g>
    <g opacity="1">
      <path fill="rgb(245,247,251)" fill-opacity="1" opacity="1" fill-rule="evenodd" d="M38.45780944824219 14.328413963317871L21.462453842163086 2.65535306930542C20.630834579467773 2.0800349712371826 19.599533081054688 1.8712574243545532 18.60962677001953 2.0778250694274902C17.61972427368164 2.2843925952911377 16.757986068725586 2.8881988525390625 16.225860595703125 3.7480955123901367L14.027519226074219 7.279153347015381L14.07894229888916 7.279153347015381L38.07642364501953 15.048337936401367C38.259117126464844 15.079983711242676 38.441436767578125 14.990546226501465 38.52823257446289 14.826704978942871C38.615028381347656 14.662863731384277 38.586612701416016 14.461785316467285 38.45780944824219 14.328413963317871ZM31.194290161132812 15.721124649047852C31.413448333740234 15.78304672241211 31.552879333496094 15.997686386108398 31.520366668701172 16.223093032836914C31.487857818603516 16.44849967956543 31.29345703125 16.614992141723633 31.065731048583984 16.612459182739258L6.035500526428223 16.612459182739258L7.038252353668213 12.575739860534668C7.280917167663574 11.597548484802246 7.913168430328369 10.761199951171875 8.78812026977539 10.260995864868164C9.66307258605957 9.760791778564453 10.704560279846191 9.640275955200195 11.670623779296875 9.927446365356445L31.194290161132812 15.721124649047852ZM4.0042853355407715 23.610297203063965C4.0042853355407715 21.593878746032715 5.638914108276367 19.959250450134277 7.655330657958984 19.959250450134277L37.84502029418945 19.959250450134277C39.86143493652344 19.959250450134277 41.496063232421875 21.593878746032715 41.496063232421875 23.610297203063965L41.496063232421875 40.352824211120605C41.496063232421875 41.32114315032959 41.11140060424805 42.24980068206787 40.42669677734375 42.9345006942749C39.74199295043945 43.619208335876465 38.81333541870117 44.00386714935303 37.84502029418945 44.00386714935303L7.651045322418213 44.00386714935303C5.634628772735596 44.00386714935303 4 42.36923885345459 4 40.352824211120605L4.0042853355407715 23.610297203063965ZM8.795210838317871 34.957674980163574C8.424196243286133 34.83771800994873 8.174219131469727 34.49052715301514 8.178132057189941 34.10062313079834L8.178132057189941 29.86249828338623C8.17539119720459 29.470271110534668 8.429373741149902 29.12235164642334 8.803781509399414 29.00544261932373C11.027402877807617 28.270861625671387 12.705890655517578 26.428263664245605 13.230459213256836 24.14595317840576L32.265602111816406 24.14595317840576C32.83290100097656 26.666037559509277 34.79881286621094 28.63528347015381 37.31793212890625 29.2068510055542L37.31793212890625 34.77769374847412C34.80467224121094 35.345858573913574 32.840171813964844 37.305365562438965 32.265602111816406 39.81716442108154L13.230459213256836 39.81716442108154C12.704292297363281 37.53280162811279 11.022144317626953 35.68975353240967 8.795210838317871 34.957674980163574ZM27.577526092529297 31.983702659606934C27.577526092529297 34.65095806121826 25.415287017822266 36.81319713592529 22.748031616210938 36.81319713592529C20.08077621459961 36.81319713592529 17.91853904724121 34.65095806121826 17.91853904724121 31.983702659606934C17.91853904724121 29.316447257995605 20.08077621459961 27.15421199798584 22.748031616210938 27.15421199798584C25.415287017822266 27.15421199798584 27.577526092529297 29.316447257995605 27.577526092529297 31.983702659606934Z"/>
    </g>
  </g>
</svg>