<svg xmlns="http://www.w3.org/2000/svg" xmlns:xlink="http://www.w3.org/1999/xlink" height="46" width="46">
  <g>
    <g opacity="1">
      <path fill="rgb(245,247,251)" fill-opacity="1" opacity="1" fill-rule="evenodd" d="M41.957210540771484 7.999980926513672L3.6584765911102295 7.999980926513672C2.1961655616760254 7.999980926513672 1 9.196146011352539 1 10.657861709594727L1 35.34210205078125C1 36.80381774902344 2.1961655616760254 37.99998092651367 3.6584765911102295 37.99998092651367L41.957210540771484 37.99998092651367C43.41952133178711 37.99998092651367 44.615684509277344 36.80381774902344 44.615684509277344 35.34210205078125L44.615684509277344 10.657861709594727C44.615684509277344 9.196146011352539 43.41952133178711 7.999980926513672 41.957210540771484 7.999980926513672ZM5.55781364440918 25.77694320678711L17.50458526611328 25.77694320678711L17.50458526611328 28.650955200195312L5.55781364440918 28.650955200195312L5.55781364440918 25.77694320678711ZM35.61497116088867 27.719148635864258C35.07910919189453 27.364885330200195 34.43726348876953 27.158279418945312 33.74659729003906 27.158279418945312C31.87226676940918 27.158279418945312 30.352201461791992 28.6783447265625 30.352201461791992 30.552675247192383C30.352201461791992 32.4276008605957 31.87226676940918 33.94707107543945 33.74659729003906 33.94707107543945C34.43726348876953 33.94707107543945 35.07910919189453 33.74046325683594 35.61497116088867 33.38679504394531C36.15083694458008 33.74046325683594 36.793277740478516 33.94707107543945 37.483943939208984 33.94707107543945C39.3582763671875 33.94707107543945 40.877742767333984 32.4276008605957 40.877742767333984 30.552675247192383C40.877742767333984 28.6783447265625 39.3582763671875 27.158279418945312 37.483943939208984 27.158279418945312C36.793277740478516 27.158279418945312 36.15083694458008 27.364885330200195 35.61497116088867 27.719148635864258ZM24.076648712158203 31.04030990600586L5.55781364440918 31.04030990600586L5.55781364440918 33.91432189941406L24.076648712158203 33.91432189941406L24.076648712158203 31.04030990600586Z"/>
    </g>
  </g>
</svg>