<svg xmlns="http://www.w3.org/2000/svg" xmlns:xlink="http://www.w3.org/1999/xlink" height="42.255113594692375" width="47.09826702269193">
  <defs>
    <path id="path-1" opacity="1" fill-rule="evenodd" d="M31.23859553835943 14.020693881118707C30.803264537540816 14.035197822370291 30.390764101138387 14.218954016774077 30.088818210364295 14.532884142168571C26.849386230570907 17.779320147343192 23.894553824616423 20.972690793074484 20.765169332440106 24.15962268576901L16.929094065401788 21.097050708870437C16.207498060909845 20.519773905276896 15.154553607187111 20.636767733468307 14.577276803593556 21.358363737960236C14 22.07995974245216 14.116993828191415 23.13290419617487 14.83858983268336 23.71018099976842L19.85579999120759 27.723949126587716C20.521613518270662 28.25511359469231 21.480246806130324 28.201106085517118 22.082186999052716 27.598518872624613C25.684369962920947 23.988602715498782 28.91768763593448 20.43618378678964 32.45108799333612 16.89515392514035C32.947811574693375 16.415054895858766 33.09826702269193 15.678970783974178 32.82977777683572 15.042462402997893C32.56128853097951 14.405954022021612 31.929103436560272 14 31.23859553835943 14.020693881118707L31.23859553835943 14.020693881118707Z"/>
    <filter id="filter-2" filterUnits="userSpaceOnUse" x="-50%" y="-50%" width="200%" height="200%">
      <feOffset in="SourceAlpha" result="shadow-1-feOffset-shadow" dx="0" dy="0"/>
      <feGaussianBlur in="shadow-1-feOffset-shadow" result="shadow-1-feGaussianBlur-shadow" stdDeviation="7"/>
      <feColorMatrix in="shadow-1-feGaussianBlur-shadow" result="shadow-1-feColorMatrix-shadow" type="matrix" values="0 0 0 0 1  0 0 0 0 1  0 0 0 0 1  0 0 0 0.37 0"/>
    </filter>
  </defs>
  <g opacity="1">
    <g opacity="1">
      <use xlink:href="#path-1" fill="black" filter="url(#filter-2)" stroke="black" stroke-opacity="0" stroke-width="0"/>
      <use xlink:href="#path-1" fill="rgb(255,255,255)" fill-opacity="1"/>
    </g>
  </g>
</svg>